<svg xmlns="http://www.w3.org/2000/svg" width="115" height="20" viewBox="0 0 115 20" role="img" aria-label="Chrome: Install">

  <title>Chrome: Install</title>
  <defs>
    <filter id="chrome-blur"><feGaussianBlur stdDeviation="16"/></filter>
    <linearGradient id="chrome-s" x2="0" y2="100%">
      <stop offset="0" stop-color="#bbb" stop-opacity=".1"/>
      <stop offset="1" stop-opacity=".1"/>
    </linearGradient>
    <clipPath id="chrome-badge"><rect width="115" height="20" rx="3"/></clipPath>
  </defs>
  <g clip-path="url(#chrome-badge)">
    <rect width="69" height="20" fill="#555"/>
    <rect x="69" width="46" height="20" fill="#0078d7"/>
    <rect width="115" height="20" fill="url(#chrome-s)"/>
  </g>
  <g fill="#fff" transform="translate(4 2) scale(.025)">
  <!-- Font Awesome Free v7.3.1 by Fonticons, Inc. — https://fontawesome.com/license/free -->
    <path d="M64 320C64 273.4 76.5 229.6 98.3 191.1L208.1 382.3C230 421.5 271.9 448 320 448C334.3 448 347.1 445.7 360.8 441.4L284.5 573.6C159.9 556.3 64 449.3 64 320zM429.1 385.6C441.4 366.4 448 343.1 448 320C448 281.8 431.2 247.5 404.7 224L557.4 224C569.4 253.6 576 286.1 576 320C576 461.4 461.4 575.1 320 576L429.1 385.6zM541.8 192L320 192C257.1 192 206.3 236.1 194.5 294.7L118.2 162.5C165 102.5 238 64 320 64C414.8 64 497.5 115.5 541.8 192zM408 320C408 368.6 368.6 408 320 408C271.4 408 232 368.6 232 320C232 271.4 271.4 232 320 232C368.6 232 408 271.4 408 320z"/>
  </g>
  <g fill="#fff" text-anchor="middle" font-family="Verdana,Geneva,DejaVu Sans,sans-serif" text-rendering="geometricPrecision" font-size="110">
    <g transform="scale(.1)">
      <g aria-hidden="true" fill="#010101">
        <text x="445" y="150" fill-opacity=".8" filter="url(#chrome-blur)" textLength="430">Chrome</text>
        <text x="445" y="150" fill-opacity=".3" textLength="430">Chrome</text>
      </g>
      <text x="445" y="140" textLength="430">Chrome</text>
    </g>
    <g transform="scale(.1)">
      <g aria-hidden="true" fill="#010101">
        <text x="920" y="150" fill-opacity=".8" filter="url(#chrome-blur)" textLength="350">Install</text>
        <text x="920" y="150" fill-opacity=".3" textLength="350">Install</text>
      </g>
      <text x="920" y="140" textLength="350">Install</text>
    </g>
  </g>
</svg>
